<?xml version="1.0" encoding="UTF-8"?>
<svg id="Layer_1" xmlns="http://www.w3.org/2000/svg" viewBox="0 0 1920 1080">
  <defs>
    <style>
      .cls-1 {
        opacity: .09;
      }

      .cls-2 {
        fill: #fbfef9;
      }

      .cls-3 {
        fill: #17462b;
      }
    </style>
  </defs>
  <rect class="cls-2" x="-66" y="-99" width="2251" height="1396"/>
  <g class="cls-1">
    <path class="cls-3" d="M1599.19,93.02h-147.32c-8.08,0-15.69,3.15-21.42,8.87l-83.8,83.8h-45.31c-36.84,0-66.81,29.98-66.81,66.83,0,31.85,25.91,57.76,57.76,57.76h82.51c17.79,0,34.76-8.35,45.67-22.39.96-.84,1.91-1.72,2.82-2.64l67.63-67.65h117.3c31.85,0,57.76-25.91,57.76-57.76,0-36.84-29.97-66.81-66.81-66.81ZM1608.24,206.97h-119.41c-1.48,0-2.87.58-3.92,1.62l-69.13,69.15c-.99.99-2.02,1.93-3.07,2.8-8.88,11.98-23.03,19.11-37.91,19.11h-82.51c-25.99,0-47.14-21.15-47.14-47.14,0-31,25.21-56.21,56.19-56.21h49.71l86.9-86.9c3.72-3.72,8.66-5.76,13.91-5.76h147.32c30.98,0,56.19,25.21,56.19,56.19,0,25.99-21.15,47.14-47.14,47.14Z"/>
    <path class="cls-3" d="M1599.19,114.26h-147.32c-2.4,0-4.7.95-6.4,2.65l-67.6,67.6-19.76,19.76c-1.7,1.7-4,2.65-6.4,2.65h-50.36c-25.17,0-45.57,20.4-45.57,45.57v.02c0,20.16,16.34,36.52,36.52,36.52h82.51c12.1,0,22.81-5.88,29.46-14.94.45-.61.97-1.16,1.56-1.64.84-.69,1.65-1.43,2.44-2.22l69.13-69.15c3.03-3.03,7.14-4.74,11.43-4.74h119.41c20.18,0,36.52-16.36,36.52-36.52h0c0-25.17-20.4-45.57-45.57-45.57Z"/>
  </g>
  <g class="cls-1">
    <path class="cls-3" d="M337.78,482.27c-3.94-3.94-8.16-7.63-12.47-10.94,4.32-3.31,8.54-7,12.47-10.94,26.93-26.93,35.49-57.46,20.35-72.6-15.14-15.14-45.67-6.57-72.6,20.35-3.94,3.94-7.63,8.16-10.94,12.47-3.31-4.32-7-8.53-10.94-12.47-26.93-26.93-57.46-35.49-72.59-20.35-15.14,15.14-6.58,45.67,20.35,72.6,3.94,3.94,8.16,7.63,12.47,10.94-4.32,3.31-8.54,7-12.47,10.94-26.93,26.93-35.49,57.46-20.35,72.59,15.14,15.14,45.67,6.58,72.59-20.35,3.94-3.94,7.63-8.16,10.94-12.47,3.31,4.32,7,8.54,10.94,12.47,26.93,26.93,57.46,35.49,72.6,20.35,15.13-15.13,6.57-45.67-20.35-72.59ZM290.25,529.8c-6.1-6.1-11.43-12.73-15.65-19.37-4.21,6.64-9.55,13.27-15.65,19.37-23.81,23.81-50.97,32.56-63.18,20.35-12.21-12.21-3.46-39.37,20.35-63.18,6.1-6.1,12.73-11.44,19.37-15.65-6.64-4.21-13.27-9.55-19.37-15.65-23.81-23.81-32.56-50.97-20.35-63.18,12.21-12.21,39.37-3.46,63.18,20.35,6.1,6.1,11.44,12.73,15.65,19.37,4.21-6.64,9.55-13.27,15.65-19.37,23.81-23.81,50.97-32.56,63.18-20.35,12.21,12.21,3.46,39.37-20.35,63.18-6.1,6.1-12.73,11.44-19.37,15.65,6.64,4.21,13.26,9.55,19.37,15.65,23.81,23.81,32.56,50.97,20.35,63.18-12.21,12.21-39.37,3.46-63.18-20.35Z"/>
    <path class="cls-3" d="M328.36,491.69c-9.42-9.42-19.6-16.43-28.75-20.35,9.15-3.93,19.33-10.93,28.75-20.35,20.47-20.47,29.58-44.54,20.35-53.76-9.23-9.23-33.3-.11-53.76,20.35-9.42,9.42-16.43,19.6-20.35,28.75-3.93-9.15-10.93-19.33-20.35-28.75-20.47-20.47-44.54-29.58-53.76-20.35-9.23,9.23-.11,33.3,20.35,53.76,9.42,9.42,19.6,16.43,28.75,20.35-9.15,3.93-19.33,10.93-28.75,20.35-20.47,20.47-29.58,44.54-20.35,53.76,9.23,9.23,33.3.11,53.76-20.35,9.42-9.42,16.43-19.6,20.35-28.75,3.93,9.15,10.93,19.33,20.35,28.75,20.47,20.47,44.54,29.58,53.76,20.35,9.23-9.23.11-33.3-20.35-53.76Z"/>
  </g>
  <g class="cls-1">
    <path class="cls-3" d="M1856.76,806.25c-3.62.37-7.3.57-11.02.57-11.1,0-21.81-1.7-31.88-4.86,3.16,10.07,4.86,20.78,4.86,31.88,0,32.8-14.86,62.19-38.21,81.79,3.62-.37,7.3-.57,11.02-.57,11.1,0,21.81,1.7,31.88,4.86-3.16-10.07-4.86-20.78-4.86-31.88,0-32.8,14.86-62.18,38.21-81.79Z"/>
    <path class="cls-3" d="M1928,994.78c-.89.02-1.78.03-2.67.03-11.1,0-21.81-1.7-31.88-4.86,3.16,10.07,4.86,20.78,4.86,31.88,0,6.05-.51,11.98-1.48,17.76,6.38-17.53,17.24-32.93,31.17-44.81Z"/>
    <path class="cls-3" d="M2043.84,950.45c10.04-19.02,15.45-40.39,15.45-62.41,0-59.91-39.53-110.76-93.87-127.83,9.29-18.44,14.28-38.98,14.28-60.17,0-73.87-60.09-133.96-133.96-133.96s-133.87,60-133.96,133.8c-73.74.09-133.71,60.06-133.8,133.8-73.79.09-133.8,60.15-133.8,133.96s60.09,133.96,133.96,133.96c33.59,0,64.33-12.43,87.87-32.93,19.03,50.84,68.12,87.13,125.52,87.13,30.31,0,59.01-10.35,82.03-28.19,20.24,48.34,68.04,82.39,123.64,82.39,73.87,0,133.96-60.09,133.96-133.96,0-57.47-36.38-106.61-87.32-125.59ZM1997.2,1182.82c-58.88,0-106.78-47.9-106.78-106.78,0-6.05.51-11.98,1.48-17.76-14.93,40.98-54.29,70.33-100.37,70.33-58.88,0-106.78-47.9-106.78-106.77,0-32.8,14.86-62.19,38.21-81.79-3.62.37-7.3.57-11.02.57-11.1,0-21.81-1.7-31.88-4.86,3.16,10.07,4.86,20.78,4.86,31.88,0,58.88-47.9,106.78-106.78,106.78s-106.78-47.9-106.78-106.78,47.9-106.78,106.78-106.78c11.1,0,21.81,1.7,31.88,4.86-3.16-10.07-4.86-20.78-4.86-31.88,0-58.88,47.9-106.78,106.77-106.78,11.1,0,21.81,1.7,31.88,4.86-3.16-10.07-4.86-20.78-4.86-31.88,0-58.88,47.9-106.78,106.78-106.78s106.78,47.9,106.78,106.78c0,32.8-14.86,62.18-38.21,81.79,3.62-.37,7.3-.57,11.02-.57,58.88,0,106.78,47.9,106.78,106.78,0,32.5-14.6,61.66-37.58,81.26.89-.02,1.78-.03,2.67-.03,58.88,0,106.78,47.9,106.78,106.78s-47.9,106.78-106.78,106.78Z"/>
    <circle class="cls-3" cx="1845.74" cy="700.04" r="79.59"/>
    <circle class="cls-3" cx="1578.14" cy="967.63" r="79.59"/>
    <circle class="cls-3" cx="1711.94" cy="833.83" r="79.59" transform="translate(-111.46 284.99) rotate(-9.22)"/>
    <circle class="cls-3" cx="1925.33" cy="888.04" r="79.59" transform="translate(-64.02 1621.51) rotate(-45)"/>
    <circle class="cls-3" cx="1791.53" cy="1021.84" r="79.59" transform="translate(-186.84 438.94) rotate(-13.28)"/>
    <circle class="cls-3" cx="1997.2" cy="1076.04" r="79.59" transform="translate(-175.91 1727.4) rotate(-45)"/>
  </g>
  <g class="cls-1">
    <path class="cls-3" d="M464.94,1083.26c-1.21-3.77-3.23-7.2-5.96-10.13-.12-.13-.25-.26-.38-.4-.09-.1-11.93-11.94-11.99-12-4.29-4.69-10.08-7.79-16.37-8.72l-3.47-.5,24.42-23.82c9.57-9.22,13.09-23.37,8.97-36.05-1.58-4.84-4.12-9.2-7.4-12.76-.18-.21-.36-.4-.56-.6-.09-.09-11.88-11.88-11.95-11.95-5.44-5.99-12.86-9.91-20.9-11.05l-2.18-.32,11.43-11.14c7.54-7.37,10.17-18.21,6.85-28.32-1.25-3.73-3.25-7.09-5.87-9.92l-.31-.33c-.15-.16-11.84-11.86-11.89-11.9-.81-.89-1.69-1.72-2.5-2.4-3.97-3.44-8.82-5.67-14.05-6.45l-23.75-3.44-7.98-16.14c-1.17-2.39-2.72-4.62-4.55-6.56-.13-.14-.26-.28-.41-.42-.09-.09-11.92-11.92-12-11.99-5.22-5.66-12.56-8.9-20.19-8.9-10.41,0-19.84,5.85-24.63,15.32l-10.78,21.87-3.64-7.36c-1.48-3.03-3.43-5.85-5.67-8.25-.15-.17-.31-.33-.47-.49-.08-.09-11.92-11.92-11.98-11.98-6.66-7.25-16.07-11.41-25.85-11.41-13.41,0-25.46,7.48-31.47,19.56l-42.93,87.04-96.05,13.95c-13.29,1.93-24.13,11.06-28.29,23.84-4.13,12.65-.65,26.78,8.89,36.01l2.88,2.88.28.28,66.27,64.82-16.38,95.4c-1.74,10.2,1.14,20.63,7.84,28.52.58.71,1.19,1.39,1.9,2.12.17.19.34.37.43.45,0,0,5.23,5.23,5.25,5.25l5.44-5.19s0,0,0,0c-.08-.08-.16-.16-.25-.25-.08-.08-.16-.16-.24-.24-.08-.08-.16-.16-.25-.25-.08-.08-.16-.16-.24-.24-.08-.08-.16-.16-.25-.25-.08-.08-.16-.16-.24-.24-.08-.08-.16-.16-.25-.25-.08-.08-.16-.16-.25-.25-.08-.08-.16-.16-.25-.25-.08-.08-.16-.16-.25-.25-.08-.08-.16-.16-.24-.24-.08-.08-.16-.16-.25-.25-.08-.08-.16-.16-.24-.24-.08-.08-.16-.16-.25-.25-.08-.08-.16-.16-.24-.24-.08-.08-.16-.17-.25-.25-.08-.08-.16-.16-.24-.24-.08-.08-.16-.16-.25-.25-.08-.08-.16-.16-.25-.25-.08-.08-.16-.16-.24-.24-.08-.08-.16-.16-.25-.25-.07-.07-.15-.15-.22-.22-.14-.14-.27-.29-.41-.43-.5-.52-.98-1.05-1.43-1.6-5.18-6.11-7.62-14.37-6.23-22.48l17.05-99.29-59.78-58.26s-.03-.03-.04-.05l-.2-.2s-.03-.03-.04-.05l-.2-.2s-.03-.03-.04-.05l-.2-.2s-.03-.03-.04-.05l-.2-.2s-.03-.03-.04-.05l-.2-.2s-.03-.03-.04-.05l-.2-.2s-.03-.03-.04-.05l-.2-.2s-.03-.03-.04-.05l-.2-.2s-.03-.03-.04-.05l-.2-.2s-.03-.03-.04-.05l-.2-.2s-.03-.03-.04-.05l-.2-.2s-.03-.03-.04-.05l-.2-.2s-.03-.03-.04-.05l-.2-.2s-.03-.03-.04-.05l-.2-.2s-.03-.03-.04-.05l-.2-.2s-.03-.03-.04-.05l-.2-.2s-.03-.03-.04-.05l-.2-.2s-.03-.03-.04-.05l-.2-.2s-.03-.03-.04-.05l-.2-.2s-.03-.03-.04-.05l-.2-.2s-.03-.03-.04-.05l-.2-.2s-.03-.03-.04-.05l-.2-.2s-.03-.03-.04-.05l-.2-.2s-.03-.03-.04-.05l-.2-.2s-.03-.03-.04-.05l-.2-.2s-.03-.03-.04-.05l-.2-.2s-.03-.03-.04-.05l-.2-.2s-.03-.03-.04-.05l-.2-.2s-.03-.03-.04-.05l-.2-.2s-.03-.03-.04-.05l-.2-.2s-.03-.03-.04-.05l-.2-.2s-.03-.03-.04-.05l-.2-.2s-.03-.03-.04-.05l-.2-.2s-.03-.03-.04-.05l-.2-.2s-.03-.03-.04-.05l-.2-.2s-.03-.03-.04-.05l-.2-.2s-.03-.03-.04-.05l-.2-.2s-.03-.03-.04-.05l-.2-.2s-.03-.03-.04-.05l-.2-.2s-.03-.03-.04-.05l-.2-.2s-.03-.03-.04-.05l-.2-.2s-.03-.03-.04-.05l-.2-.2s-.03-.03-.04-.05l-.2-.2s-.03-.03-.04-.05l-.2-.2s-.03-.03-.04-.05l-.2-.2s-.03-.03-.04-.05l-.2-.2s-.03-.03-.04-.05l-.2-.2s-.03-.03-.04-.05l-.2-.2s-.03-.03-.04-.05l-.2-.2s-.03-.03-.04-.05l-.2-.2s-.03-.03-.04-.05l-.2-.2c-7.46-7.22-10.2-18.33-6.96-28.26,3.27-10.04,11.78-17.22,22.23-18.73l99.96-14.52,44.68-90.58c4.72-9.49,14.19-15.36,24.73-15.36,7.85,0,15.27,3.42,20.43,9.1.08.09.17.16.25.25.08.09.17.16.25.25.08.09.17.16.25.25.08.08.17.16.25.25.08.08.17.16.24.24.08.09.17.16.25.25.08.08.17.16.24.24.08.09.17.16.25.25.08.08.17.16.24.24.08.09.17.16.25.25.08.08.17.16.24.24.08.08.17.16.25.24.08.08.17.16.25.25.08.08.17.16.25.24.08.09.17.16.25.25.08.09.17.16.24.24.08.09.17.16.25.25.08.08.17.16.24.24.08.09.17.16.25.25.08.08.17.16.24.24.08.08.17.16.25.24.08.09.17.16.25.25.08.09.17.16.25.25.08.09.17.16.25.25.08.08.17.16.24.24.08.09.17.16.25.25.08.08.17.16.24.24.08.09.17.16.25.25.08.08.17.16.24.24.08.09.17.16.25.25.08.08.17.16.24.24.08.09.17.16.25.25.08.08.17.16.25.25.08.08.17.16.25.24.08.08.17.16.25.25.08.08.17.16.24.24.08.09.17.16.25.25.08.08.17.16.24.24.08.09.17.16.25.25.08.08.17.16.24.24.08.08.17.16.25.24.08.08.17.16.25.25.08.08.17.16.25.24.08.09.17.16.25.25.08.09.17.16.24.24.08.09.17.16.25.25.08.08.17.16.24.24.08.09.17.16.25.25.08.08.17.16.24.24.08.09.17.16.25.25,1.8,1.94,3.35,4.13,4.54,6.56l8.57,17.34,3.93-.57,15.41-31.25c3.49-6.89,10.33-11.13,17.89-11.13,5.67,0,11.05,2.49,14.79,6.61.08.08.17.16.25.24.08.08.17.16.25.25.08.08.17.16.25.25.08.08.17.16.25.25.08.08.17.16.24.24.08.08.17.16.25.25.08.08.17.16.24.24.08.08.17.16.25.25.08.08.17.16.24.24.08.09.17.16.25.25.08.08.17.16.24.24.08.08.17.16.25.25.08.08.17.16.25.25.08.08.17.16.25.24.08.08.17.16.25.25.08.08.17.16.24.24.08.09.17.16.25.25.08.08.17.16.24.24.08.09.17.16.25.25.08.08.17.16.24.24.08.08.17.16.25.24.08.08.17.16.25.25.08.08.17.16.25.24.08.08.17.16.25.25.08.08.17.16.24.24.08.09.17.16.25.25.08.08.17.16.24.24.08.08.17.16.25.25.08.08.17.16.24.24.08.08.17.16.25.25.08.08.17.16.24.24.08.08.17.16.25.25.08.08.17.16.25.25.08.08.17.16.25.25.08.08.17.16.25.25.08.08.17.16.24.24.08.08.17.16.25.25.08.08.17.16.24.24.08.09.17.16.25.25.08.08.17.16.24.24.08.08.17.16.25.25.08.08.17.16.25.25.08.08.17.16.25.24.08.08.17.16.25.25.08.08.17.16.24.24.08.09.17.16.25.25.08.08.17.16.24.24.08.09.17.16.25.25.08.08.17.16.24.24.08.08.17.16.25.25,1.33,1.42,2.47,3.02,3.35,4.81l9.74,19.7,27.66,4.01c3.88.58,7.38,2.25,10.2,4.69.71.59,1.38,1.24,2,1.92.08.08.17.16.25.25.08.08.17.16.24.24.08.08.17.16.25.25.08.09.17.16.25.25.08.08.17.16.24.24.08.09.17.16.25.25.08.08.17.16.24.24.08.08.17.16.25.25.08.08.17.16.24.24.08.08.17.16.25.25.08.08.17.16.24.24.08.09.17.16.25.25.08.09.17.16.25.25.08.08.17.16.24.24.08.08.17.16.25.25.08.08.17.16.24.24.08.08.17.16.25.25.08.08.17.16.24.24.08.09.17.16.25.25.08.08.17.16.24.24.08.09.17.16.25.25.08.08.17.16.24.24.08.08.17.16.25.25.08.08.17.16.25.25.08.08.17.16.24.24.08.09.17.16.25.25.08.08.17.16.24.24.08.09.17.16.25.25.08.08.17.16.24.24.08.08.17.16.25.25.08.08.17.16.24.24.08.08.17.16.25.25.08.09.17.16.25.25.08.08.17.16.24.24.08.09.17.16.25.25.08.08.17.16.24.24.08.08.17.16.25.25.08.08.17.16.24.24.08.08.17.16.25.25.08.08.17.16.24.24.08.09.17.16.25.25.08.08.17.16.24.24.08.08.17.16.25.25.08.08.17.16.25.25.08.08.17.16.24.24.08.08.17.16.25.25.08.08.17.16.24.24.08.09.17.16.25.25.09.1.19.19.29.3,1.9,2.05,3.39,4.5,4.32,7.26,2.41,7.34.5,15.21-4.98,20.56l-22.32,21.75,17.24,2.51c6.53.93,12.32,4.09,16.54,8.8.08.09.17.16.25.25.08.09.17.16.25.25.08.09.17.16.25.24.08.09.17.16.25.25.08.09.17.16.24.24.08.09.17.16.25.25.08.09.17.16.24.24.08.09.17.16.25.25.08.09.17.16.24.24.08.09.17.16.25.25.08.09.17.16.24.24.08.09.17.16.25.24.08.09.17.16.25.25.08.09.17.16.25.25.08.09.17.16.25.25.08.09.17.16.24.24.08.09.17.16.25.25.08.09.17.16.24.24.08.09.17.16.25.25.08.09.17.16.24.24.08.09.17.16.25.25.08.09.17.16.25.25.08.09.17.16.25.25.08.09.17.16.25.25.08.09.17.16.24.24.08.09.17.16.25.25.08.09.17.16.24.24.08.09.17.16.25.25.08.09.17.16.24.24.08.09.17.16.25.25.08.09.17.16.24.24.08.09.17.16.25.24.08.09.17.16.25.25.08.09.17.16.25.24.08.09.17.16.25.25.08.09.17.16.24.24.08.09.17.16.25.25.08.09.17.16.24.24.08.09.17.16.25.25.08.09.17.16.24.24.08.09.17.16.25.24.08.09.17.16.25.25.08.09.17.16.25.25.08.09.17.16.25.25.08.09.17.16.24.24.08.09.17.16.25.25.08.09.17.16.24.24.08.09.17.16.25.25.08.09.17.16.24.24.08.09.17.16.25.25,2.63,2.86,4.69,6.3,5.95,10.18,3.24,9.96.47,21.07-7.04,28.31l-35.36,34.49,18.54,2.69c4.71.71,8.94,3.07,12.02,6.49.08.08.17.16.25.24.08.09.17.16.25.25.08.09.17.16.25.25.08.09.17.16.25.25.08.08.17.16.24.24.08.09.17.16.25.25.08.08.17.16.24.24.08.09.17.16.25.25.08.08.17.16.24.24.08.09.17.16.25.25.08.08.17.16.24.24.08.09.17.16.25.25.08.08.17.16.25.25.08.08.17.16.25.24.08.08.17.16.25.25.08.08.17.16.24.24.08.09.17.16.25.25.08.08.17.16.24.24.08.09.17.16.25.25.08.08.17.16.24.24.08.08.17.16.25.24.08.08.17.16.25.25.08.08.17.16.25.24.08.09.17.16.25.25.08.09.17.16.24.24.08.09.17.16.25.25.08.08.17.16.24.24.08.09.17.16.25.25.08.08.17.16.24.24.08.09.17.16.25.25.08.08.17.16.24.24.08.09.17.16.25.25.08.09.17.16.25.25.08.09.17.16.25.25.08.08.17.16.25.25.08.08.17.16.24.24.08.09.17.16.25.25.08.08.17.16.24.24.08.09.17.16.25.25.08.08.17.16.24.24.08.09.17.16.25.25.08.08.17.16.25.25.08.08.17.16.25.24.08.08.17.16.25.25.08.08.17.16.24.24.08.09.17.16.25.25.08.08.17.16.24.24.08.09.17.16.25.25.08.08.17.16.24.24.08.09.17.16.25.25,1.94,2.09,3.46,4.58,4.35,7.36,2.32,7.13.35,15.15-5.04,20.41l-24.98,24.35,5.92,34.33c1.21,7.54-1.94,15.18-8,19.55-3.34,2.46-7.4,3.78-11.69,3.78-3.18,0-6.34-.76-9.15-2.21l-16.65-8.77,2.62,15.24c1.76,10.31-2.56,20.9-11,26.99-4.61,3.38-10.37,5.26-16.17,5.26-4.47,0-8.89-1.09-12.8-3.15l-89.42-47.01-89.4,47.01c-3.99,2.06-8.41,3.14-12.82,3.14-5.89,0-11.52-1.83-16.26-5.31-.34-.24-.63-.54-.95-.8-.51-.4-1.01-.82-1.49-1.25-.22-.2-.45-.39-.67-.6-.08-.08-.16-.16-.25-.24-.08-.08-.16-.17-.25-.25-.08-.08-.16-.16-.24-.24-.08-.08-.16-.16-.25-.25-.08-.08-.16-.16-.24-.24-.08-.08-.16-.16-.25-.25-.08-.08-.16-.16-.25-.25-.08-.08-.16-.16-.24-.24-.08-.08-.16-.16-.25-.25-.08-.08-.16-.16-.24-.24-.08-.08-.16-.16-.25-.25-.08-.08-.16-.16-.24-.24-.08-.08-.16-.16-.25-.25-.08-.08-.16-.16-.24-.24,0,0,0,0,0,0l-5.15,5.48c.16.16,3.27,3.27,3.3,3.3.23.23.47.45.72.67l.19.17c.61.55,1.25,1.09,1.94,1.63.36.32.73.63,1.1.9,6.04,4.42,13.2,6.76,20.7,6.76,5.61,0,11.24-1.38,16.32-4.01l85.9-45.17,85.92,45.17c4.98,2.63,10.62,4.01,16.3,4.01,7.39,0,14.71-2.38,20.57-6.67,10.75-7.75,16.25-21.23,14.01-34.36l-.04-.21,3.22,1.7c3.87,1.99,8.22,3.04,12.59,3.04,5.89,0,11.47-1.81,16.08-5.2,8.34-6.02,12.67-16.55,11-26.92l-5.24-30.44,22.15-21.59c7.42-7.24,10.13-18.28,6.94-28.09Z"/>
    <polygon class="cls-3" points="331.94 864.54 311.9 905.17 282.44 909.46 269.41 911.34 267.03 911.69 271.94 916.47 298.85 942.68 299.5 943.33 299.4 943.86 295.82 964.85 291.83 988.03 315.41 975.62 331.94 966.93 361.11 982.26 372.08 988.03 371.35 983.74 369.12 970.79 364.41 943.33 396.88 911.69 352.01 905.17 331.94 864.54"/>
    <polygon class="cls-3" points="364.56 1038.48 361.38 1032.04 352.31 1050.43 341.31 1072.68 332.19 1074.01 296.44 1079.22 328.91 1110.86 321.25 1155.53 344.12 1143.51 355.77 1137.37 361.38 1134.44 401.49 1155.53 393.83 1110.86 426.3 1079.22 381.42 1072.68 370.38 1050.28 364.56 1038.48"/>
    <path class="cls-3" d="M369.8,992.38l-23.3-12.25-22.8-3.31-29.59,15.56c-.7.38-1.5.55-2.28.55-1.03,0-2.03-.33-2.88-.93-1.53-1.1-2.28-2.98-1.98-4.81l5.14-29.86-13.63-27.61-14.88-14.51c-1.33-1.3-1.83-3.26-1.25-5.04.6-1.78,2.13-3.08,3.98-3.36l.8-.13-18.21-36.88-51.11,103.57-114.29,16.59,82.7,80.62-19.52,113.82,102.22-53.74,102.22,53.74-6.14-35.8-21.47,11.27c-.7.38-1.5.55-2.28.55-1.03,0-2.03-.3-2.88-.93-1.53-1.1-2.28-2.98-1.95-4.81l7.22-42.14-30.62-29.84c-1.33-1.3-1.83-3.26-1.23-5.04.58-1.78,2.1-3.08,3.96-3.36l37.66-5.46,8.32-8.12,15.26-30.89c.83-1.68,2.53-2.73,4.41-2.73s3.58,1.05,4.41,2.73l2.48,5.01,46.02-44.9-37.86-5.49.48,2.71c.33,1.83-.43,3.71-1.95,4.81-.85.6-1.85.93-2.88.93-.78,0-1.58-.18-2.28-.55Z"/>
    <path class="cls-3" d="M408.68,907.78c-1.5-4.48-5.34-7.69-10.02-8.39l-38.38-5.56-17.19-34.77c-2.08-4.23-6.44-6.96-11.15-6.96s-8.97,2.63-11.15,6.94l-17.16,34.8-19.14,2.78-17.61-35.63c-3.33-6.81-10.4-11.2-17.96-11.2s-14.56,4.28-17.99,11.17l-46.42,94.13-103.87,15.08c-7.59,1.1-13.78,6.31-16.16,13.63-2.36,7.22-.38,15.28,5.06,20.54l75.16,73.26-17.76,103.45c-1.28,7.49,1.88,15.18,7.94,19.57,3.46,2.53,7.54,3.86,11.83,3.86,3.21,0,6.41-.78,9.32-2.28l92.9-48.85,92.92,48.85c2.86,1.5,6.06,2.28,9.29,2.28,4.23,0,8.42-1.38,11.78-3.83,6.11-4.41,9.27-12.1,7.99-19.62l-5.21-30.26,30.09,15.83c1.75.9,3.73,1.38,5.71,1.38,2.68,0,5.21-.83,7.29-2.35,3.78-2.73,5.74-7.49,4.99-12.18l-6.59-38.23,27.81-27.11c3.36-3.28,4.58-8.27,3.13-12.73-1.43-4.43-5.36-7.77-10.05-8.47l-38.38-5.56-6.44-13.08,45-43.89c5.46-5.26,7.47-13.33,5.11-20.57-2.38-7.32-8.59-12.55-16.18-13.63l-36.45-5.31-2.96-17.16,27.81-27.11c3.41-3.33,4.61-8.22,3.11-12.8ZM400.32,915.22l-30.62,29.84,4.53,26.46,41.86,6.09c4.74.68,8.64,3.98,10.12,8.52,1.48,4.53.25,9.52-3.18,12.83l-48.95,47.73,10.62,21.52,42.29,6.14c1.85.28,3.41,1.58,3.98,3.36.58,1.78.08,3.73-1.25,5.04l-30.62,29.84,7.24,42.14c.3,1.83-.45,3.71-1.98,4.81-.85.63-1.85.93-2.88.93-.78,0-1.55-.18-2.28-.55l-37.83-19.89-4.74,2.48,6.84,39.81c.8,4.71-1.13,9.47-4.99,12.25-2.18,1.6-4.79,2.41-7.37,2.41-2,0-4.01-.48-5.84-1.43l-96.38-50.68-96.41,50.68c-1.83.95-3.83,1.43-5.81,1.43-2.61,0-5.19-.8-7.37-2.41-3.86-2.78-5.79-7.54-4.99-12.25l18.41-107.33-77.99-76.01c-3.41-3.31-4.63-8.29-3.16-12.83,1.48-4.53,5.39-7.84,10.1-8.52l107.78-15.66,48.18-97.66c2.13-4.28,6.46-6.99,11.25-6.99s9.12,2.71,11.22,6.99l20.02,40.54,28.46-4.13,18.92-38.33c.85-1.68,2.56-2.76,4.41-2.76s3.58,1.08,4.41,2.76l18.94,38.33,42.29,6.14c1.85.28,3.38,1.58,3.98,3.36.58,1.78.08,3.73-1.25,5.04Z"/>
  </g>
  <g class="cls-1">
    <path class="cls-3" d="M330.04,43.37v239.82c0,13.16,5.13,25.54,14.44,34.87l136.41,136.41v73.76c0,59.97,48.81,108.77,108.8,108.77,51.85,0,94.03-42.18,94.03-94.03v-134.32c0-28.96-13.59-56.59-36.46-74.34-1.37-1.57-2.81-3.11-4.3-4.59l-110.14-110.1V28.64c0-51.85-42.18-94.03-94.03-94.03-59.97,0-108.77,48.79-108.77,108.77ZM515.55,28.64v194.39c0,2.41.94,4.67,2.64,6.38l112.57,112.54c1.61,1.6,3.14,3.29,4.56,4.99,19.5,14.45,31.12,37.49,31.12,61.71v134.32c0,42.32-34.43,76.74-76.74,76.74-50.47,0-91.51-41.03-91.51-91.47v-80.92l-141.47-141.47c-6.05-6.06-9.38-14.1-9.38-22.64V43.37c0-50.44,41.03-91.47,91.47-91.47,42.32,0,76.74,34.43,76.74,76.74Z"/>
    <path class="cls-3" d="M364.62,43.37v239.82c0,3.91,1.55,7.65,4.31,10.42l110.05,110.05,32.17,32.17c2.76,2.76,4.32,6.51,4.32,10.42v81.98c0,40.97,33.21,74.18,74.18,74.18h.03c32.82,0,59.45-26.59,59.45-59.45v-134.32c0-19.7-9.58-37.14-24.31-47.96-1-.73-1.89-1.58-2.68-2.54-1.13-1.37-2.33-2.69-3.62-3.97l-112.57-112.54c-4.94-4.93-7.71-11.63-7.71-18.61V28.64c0-32.85-26.63-59.45-59.45-59.45h0c-40.97,0-74.18,33.21-74.18,74.18Z"/>
  </g>
  <g class="cls-1">
    <path class="cls-3" d="M1546.34,543.73c10.77-15.03,16.84-33.26,16.84-52.43v-14.15c0-49.7-40.43-90.13-90.13-90.13h-128.75c-49.7,0-90.13,40.43-90.13,90.13v14.15c0,12.96,2.83,25.68,8.12,37.29h-66.33c-49.7,0-90.13,40.43-90.13,90.13v14.15c0,49.7,40.43,90.13,90.13,90.13h128.75c35.18,0,65.86-20.02,80.68-49.82,11.11,7.56,24.41,11.8,38.42,11.8h79.39c37.65,0,68.29-30.63,68.29-68.29v-8.72c0-29.53-18.85-54.75-45.14-64.25ZM1574.91,616.69c0,28.51-23.2,51.71-51.71,51.71h-79.39c-19.96,0-37.32-11.37-45.94-27.94-3.81,36.99-35.17,65.96-73.16,65.96h-128.75c-40.57,0-73.56-32.98-73.56-73.56v-14.15c0-40.57,32.98-73.56,73.56-73.56h98.28c-14.45-13.42-23.5-32.62-23.5-53.87v-14.15c0-40.57,32.98-73.56,73.56-73.56h128.75c40.54,0,73.56,32.98,73.56,73.56v14.15c0,28.11-15.88,52.57-39.08,64.97h15.68c28.51,0,51.71,23.17,51.71,51.71v8.72Z"/>
    <path class="cls-3" d="M1324.71,561.73h-128.75c-31.49,0-56.98,25.52-56.98,56.98v14.15c0,31.46,25.49,56.98,56.98,56.98h128.75c31.46,0,56.98-25.52,56.98-56.98v-14.15c0-31.46-25.52-56.98-56.98-56.98Z"/>
    <path class="cls-3" d="M1523.19,572.83h-79.39c-19.42,0-35.14,15.74-35.14,35.14v8.73c0,19.4,15.72,35.14,35.14,35.14h79.39c19.4,0,35.14-15.74,35.14-35.14v-8.73c0-19.4-15.74-35.14-35.14-35.14Z"/>
    <path class="cls-3" d="M1530.01,491.29v-14.15c0-31.46-25.52-56.98-56.98-56.98h-128.75c-31.49,0-56.98,25.52-56.98,56.98v14.15c0,31.46,25.49,56.98,56.98,56.98h128.75c31.46,0,56.98-25.52,56.98-56.98Z"/>
  </g>
</svg>