<?xml version="1.0" encoding="UTF-8"?>
<svg id="Layer_1" xmlns="http://www.w3.org/2000/svg" viewBox="0 0 1500 671">
  <defs>
    <style>
      .cls-1 {
        fill: #fff;
      }

      .cls-2 {
        stroke: #27aae1;
      }

      .cls-2, .cls-3 {
        fill: none;
      }

      .cls-4 {
        fill: #e2e8ba;
      }
    </style>
  </defs>
  <polygon points="1313.97 271.71 1313.97 69.81 1056.33 69.81 1056.33 0 828.08 0 712.41 69.81 264.83 69.81 0 229.64 0 671 1235.17 671 1500 511.17 1500 271.71 1313.97 271.71"/>
  <g>
    <g>
      <rect class="cls-1" x="853.63" y="25.66" width="78.01" height="251.56"/>
      <rect class="cls-1" x="953.2" y="25.66" width="78.01" height="251.56"/>
      <g>
        <rect class="cls-1" x="1139.23" y="371.55" width="78.01" height="112.82"/>
        <rect class="cls-1" x="1139.23" y="298.33" width="78.01" height="51.64"/>
      </g>
      <path class="cls-1" d="M1238.8,297.37v46.72h83.1l-83.1,64.39v75.89h236.07v-187h-236.07ZM1333.5,408.48l76.15-58.79v58.79h-76.15Z"/>
      <path class="cls-1" d="M595.99,302.61v181.75h236.07v-75.89h-76.62l76.62-59.15v-46.72h-236.07ZM735.27,349.33l-74.06,57.17v-57.17h74.06Z"/>
      <path class="cls-1" d="M595.99,95.47v181.75h236.07v-75.89h-76.62l76.62-59.15v-46.72h-236.07ZM735.27,142.19l-74.06,57.17v-57.17h74.06Z"/>
      <path class="cls-1" d="M1288.84,95.47h-236.07v181.75h236.07V95.47h0ZM1117.98,201.33v-59.15h105.64v59.15h-105.64Z"/>
      <polygon class="cls-1" points="401 302.61 368.39 332.3 368.39 302.61 290.38 302.61 290.38 484.37 368.39 484.37 368.39 349.33 393.78 349.33 393.78 484.37 471.79 484.37 471.79 349.33 496.42 349.33 496.42 484.37 574.42 484.37 574.42 302.61 401 302.61"/>
      <polygon class="cls-1" points="401 95.47 368.39 125.15 368.39 95.47 290.38 95.47 290.38 277.22 368.39 277.22 368.39 142.19 393.78 142.19 393.78 277.22 471.79 277.22 471.79 142.19 496.42 142.19 496.42 277.22 574.42 277.22 574.42 95.47 401 95.47"/>
      <path class="cls-1" d="M853.63,302.61v181.75h264.04v-94.92l-112.47-86.83h-151.57ZM1040.41,408.48h-121.56v-59.15h44.95l76.62,59.15h-.01Z"/>
    </g>
    <g>
      <rect class="cls-2" x="853.63" y="25.66" width="78.01" height="251.56"/>
      <rect class="cls-2" x="953.2" y="25.66" width="78.01" height="251.56"/>
      <g>
        <rect class="cls-2" x="1139.23" y="371.55" width="78.01" height="112.82"/>
        <rect class="cls-2" x="1139.23" y="298.33" width="78.01" height="51.64"/>
      </g>
      <path class="cls-2" d="M1238.8,297.37v46.72h83.1l-83.1,64.39v75.89h236.07v-187h-236.07ZM1333.5,408.48l76.15-58.79v58.79h-76.15Z"/>
      <path class="cls-2" d="M595.99,302.61v181.75h236.07v-75.89h-76.62l76.62-59.15v-46.72h-236.07ZM735.27,349.33l-74.06,57.17v-57.17h74.06Z"/>
      <path class="cls-2" d="M595.99,95.47v181.75h236.07v-75.89h-76.62l76.62-59.15v-46.72h-236.07ZM735.27,142.19l-74.06,57.17v-57.17h74.06Z"/>
      <path class="cls-2" d="M1288.84,95.47h-236.07v181.75h236.07V95.47h0ZM1117.98,201.33v-59.15h105.64v59.15h-105.64Z"/>
      <polygon class="cls-2" points="401 302.61 368.39 332.3 368.39 302.61 290.38 302.61 290.38 484.37 368.39 484.37 368.39 349.33 393.78 349.33 393.78 484.37 471.79 484.37 471.79 349.33 496.42 349.33 496.42 484.37 574.42 484.37 574.42 302.61 401 302.61"/>
      <polygon class="cls-2" points="401 95.47 368.39 125.15 368.39 95.47 290.38 95.47 290.38 277.22 368.39 277.22 368.39 142.19 393.78 142.19 393.78 277.22 471.79 277.22 471.79 142.19 496.42 142.19 496.42 277.22 574.42 277.22 574.42 95.47 401 95.47"/>
      <path class="cls-2" d="M853.63,302.61v181.75h264.04v-94.92l-112.47-86.83h-151.57ZM1040.41,408.48h-121.56v-59.15h44.95l76.62,59.15h-.01Z"/>
    </g>
  </g>
  <g>
    <g>
      <rect class="cls-1" x="854.78" y="26.32" width="78.06" height="251.86"/>
      <rect class="cls-1" x="954.42" y="26.32" width="78.06" height="251.86"/>
      <g>
        <rect class="cls-1" x="1140.57" y="372.63" width="78.06" height="112.96"/>
        <rect class="cls-1" x="1140.57" y="299.32" width="78.06" height="51.7"/>
      </g>
      <path class="cls-1" d="M1240.21,298.36v46.78h83.16l-83.16,64.47v75.98h236.23v-187.23h-236.23,0ZM1334.97,409.6l76.2-58.86v58.86h-76.2Z"/>
      <path class="cls-1" d="M596.97,303.61v181.97h236.23v-75.98h-76.67l76.67-59.22v-46.78h-236.23ZM736.34,350.38l-74.11,57.24v-57.24h74.11Z"/>
      <path class="cls-1" d="M596.97,96.22v181.97h236.23v-75.98h-76.67l76.67-59.22v-46.78h-236.23ZM736.34,142.99l-74.11,57.24v-57.24h74.11Z"/>
      <path class="cls-1" d="M1290.28,96.22h-236.23v181.97h236.23V96.22h0ZM1119.31,202.21v-59.22h105.71v59.22h-105.71Z"/>
      <polygon class="cls-1" points="401.85 303.61 369.21 333.33 369.21 303.61 291.15 303.61 291.15 485.58 369.21 485.58 369.21 350.38 394.62 350.38 394.62 485.58 472.68 485.58 472.68 350.38 497.33 350.38 497.33 485.58 575.38 485.58 575.38 303.61 401.85 303.61"/>
      <polygon class="cls-1" points="401.85 96.22 369.21 125.94 369.21 96.22 291.15 96.22 291.15 278.2 369.21 278.2 369.21 142.99 394.62 142.99 394.62 278.2 472.68 278.2 472.68 142.99 497.33 142.99 497.33 278.2 575.38 278.2 575.38 96.22 401.85 96.22"/>
      <path class="cls-1" d="M854.78,303.61v181.97h264.22v-95.03l-112.55-86.93h-151.67ZM1041.69,409.6h-121.64v-59.22h44.98l76.67,59.22h-.01Z"/>
    </g>
    <g>
      <rect class="cls-4" x="854.78" y="26.32" width="78.06" height="251.86"/>
      <rect class="cls-4" x="954.42" y="26.32" width="78.06" height="251.86"/>
      <g>
        <rect class="cls-4" x="1140.57" y="372.63" width="78.06" height="112.96"/>
        <rect class="cls-4" x="1140.57" y="299.32" width="78.06" height="51.7"/>
      </g>
      <path class="cls-4" d="M1240.21,298.36v46.78h83.16l-83.16,64.47v75.98h236.23v-187.23h-236.23,0ZM1334.97,409.6l76.2-58.86v58.86h-76.2Z"/>
      <path class="cls-4" d="M596.97,303.61v181.97h236.23v-75.98h-76.67l76.67-59.22v-46.78h-236.23ZM736.34,350.38l-74.11,57.24v-57.24h74.11Z"/>
      <path class="cls-4" d="M596.97,96.22v181.97h236.23v-75.98h-76.67l76.67-59.22v-46.78h-236.23ZM736.34,142.99l-74.11,57.24v-57.24h74.11Z"/>
      <path class="cls-4" d="M1290.28,96.22h-236.23v181.97h236.23V96.22h0ZM1119.31,202.21v-59.22h105.71v59.22h-105.71Z"/>
      <polygon class="cls-4" points="401.85 303.61 369.21 333.33 369.21 303.61 291.15 303.61 291.15 485.58 369.21 485.58 369.21 350.38 394.62 350.38 394.62 485.58 472.68 485.58 472.68 350.38 497.33 350.38 497.33 485.58 575.38 485.58 575.38 303.61 401.85 303.61"/>
      <polygon class="cls-4" points="401.85 96.22 369.21 125.94 369.21 96.22 291.15 96.22 291.15 278.2 369.21 278.2 369.21 142.99 394.62 142.99 394.62 278.2 472.68 278.2 472.68 142.99 497.33 142.99 497.33 278.2 575.38 278.2 575.38 96.22 401.85 96.22"/>
      <path class="cls-4" d="M854.78,303.61v181.97h264.22v-95.03l-112.55-86.93h-151.67ZM1041.69,409.6h-121.64v-59.22h44.98l76.67,59.22h-.01Z"/>
    </g>
    <g>
      <rect class="cls-3" x="854.78" y="26.32" width="78.06" height="251.86"/>
      <rect class="cls-3" x="954.42" y="26.32" width="78.06" height="251.86"/>
      <g>
        <rect class="cls-3" x="1140.57" y="372.63" width="78.06" height="112.96"/>
        <rect class="cls-3" x="1140.57" y="299.32" width="78.06" height="51.7"/>
      </g>
      <path class="cls-3" d="M1240.21,298.36v46.78h83.16l-83.16,64.47v75.98h236.23v-187.23h-236.23,0ZM1334.97,409.6l76.2-58.86v58.86h-76.2Z"/>
      <path class="cls-3" d="M596.97,303.61v181.97h236.23v-75.98h-76.67l76.67-59.22v-46.78h-236.23ZM736.34,350.38l-74.11,57.24v-57.24h74.11Z"/>
      <path class="cls-3" d="M596.97,96.22v181.97h236.23v-75.98h-76.67l76.67-59.22v-46.78h-236.23ZM736.34,142.99l-74.11,57.24v-57.24h74.11Z"/>
      <path class="cls-3" d="M1290.28,96.22h-236.23v181.97h236.23V96.22h0ZM1119.31,202.21v-59.22h105.71v59.22h-105.71Z"/>
      <polygon class="cls-3" points="401.85 303.61 369.21 333.33 369.21 303.61 291.15 303.61 291.15 485.58 369.21 485.58 369.21 350.38 394.62 350.38 394.62 485.58 472.68 485.58 472.68 350.38 497.33 350.38 497.33 485.58 575.38 485.58 575.38 303.61 401.85 303.61"/>
      <polygon class="cls-3" points="401.85 96.22 369.21 125.94 369.21 96.22 291.15 96.22 291.15 278.2 369.21 278.2 369.21 142.99 394.62 142.99 394.62 278.2 472.68 278.2 472.68 142.99 497.33 142.99 497.33 278.2 575.38 278.2 575.38 96.22 401.85 96.22"/>
      <path class="cls-3" d="M854.78,303.61v181.97h264.22v-95.03l-112.55-86.93h-151.67ZM1041.69,409.6h-121.64v-59.22h44.98l76.67,59.22h-.01Z"/>
    </g>
  </g>
</svg>