<?xml version="1.0" encoding="UTF-8"?>
<svg id="Layer_1" xmlns="http://www.w3.org/2000/svg" viewBox="0 0 1500 671.01">
  <defs>
    <style>
      .cls-1 {
        fill: #de8589;
      }

      .cls-2 {
        fill: #fff;
      }

      .cls-3 {
        fill: none;
        stroke: #27aae1;
      }
    </style>
  </defs>
  <polygon points="1313.97 271.71 1313.97 69.81 1056.33 69.81 1056.33 0 828.08 .01 712.41 69.81 264.83 69.81 0 229.64 0 671.01 1235.16 671 1500 511.17 1500 271.71 1313.97 271.71"/>
  <g>
    <g>
      <rect class="cls-2" x="853.62" y="25.66" width="78.01" height="251.56"/>
      <rect class="cls-2" x="953.19" y="25.66" width="78.01" height="251.56"/>
      <g>
        <rect class="cls-2" x="1139.23" y="371.55" width="78.01" height="112.82"/>
        <rect class="cls-2" x="1139.23" y="298.33" width="78.01" height="51.64"/>
      </g>
      <path class="cls-2" d="M1238.8,297.37v46.72h83.1l-83.1,64.39v75.89h236.07v-187h-236.07,0ZM1333.5,408.48l76.15-58.79v58.79h-76.15Z"/>
      <path class="cls-2" d="M595.99,302.61v181.75h236.07v-75.89h-76.62l76.62-59.15v-46.72h-236.07ZM735.26,349.33l-74.06,57.17v-57.17h74.06Z"/>
      <path class="cls-2" d="M595.99,95.47v181.75h236.07v-75.89h-76.62l76.62-59.15v-46.72h-236.07ZM735.26,142.19l-74.06,57.17v-57.17h74.06Z"/>
      <path class="cls-2" d="M1288.84,95.47h-236.07v181.75h236.07V95.47ZM1117.98,201.34v-59.15h105.64v59.15h-105.64Z"/>
      <polygon class="cls-2" points="401 302.61 368.39 332.3 368.39 302.61 290.38 302.61 290.38 484.37 368.39 484.37 368.39 349.33 393.78 349.33 393.78 484.37 471.78 484.37 471.78 349.33 496.42 349.33 496.42 484.37 574.42 484.37 574.42 302.61 401 302.61"/>
      <polygon class="cls-2" points="401 95.47 368.39 125.16 368.39 95.47 290.38 95.47 290.38 277.23 368.39 277.23 368.39 142.19 393.78 142.19 393.78 277.23 471.78 277.23 471.78 142.19 496.42 142.19 496.42 277.23 574.42 277.23 574.42 95.47 401 95.47"/>
      <path class="cls-2" d="M853.62,302.61v181.75h264.04v-94.92l-112.47-86.83h-151.57ZM1040.4,408.48h-121.56v-59.15h44.95l76.62,59.15h-.01Z"/>
    </g>
    <g>
      <rect class="cls-3" x="853.62" y="25.66" width="78.01" height="251.56"/>
      <rect class="cls-3" x="953.19" y="25.66" width="78.01" height="251.56"/>
      <g>
        <rect class="cls-3" x="1139.23" y="371.55" width="78.01" height="112.82"/>
        <rect class="cls-3" x="1139.23" y="298.33" width="78.01" height="51.64"/>
      </g>
      <path class="cls-3" d="M1238.8,297.37v46.72h83.1l-83.1,64.39v75.89h236.07v-187h-236.07,0ZM1333.5,408.48l76.15-58.79v58.79h-76.15Z"/>
      <path class="cls-3" d="M595.99,302.61v181.75h236.07v-75.89h-76.62l76.62-59.15v-46.72h-236.07ZM735.26,349.33l-74.06,57.17v-57.17h74.06Z"/>
      <path class="cls-3" d="M595.99,95.47v181.75h236.07v-75.89h-76.62l76.62-59.15v-46.72h-236.07ZM735.26,142.19l-74.06,57.17v-57.17h74.06Z"/>
      <path class="cls-3" d="M1288.84,95.47h-236.07v181.75h236.07V95.47ZM1117.98,201.34v-59.15h105.64v59.15h-105.64Z"/>
      <polygon class="cls-3" points="401 302.61 368.39 332.3 368.39 302.61 290.38 302.61 290.38 484.37 368.39 484.37 368.39 349.33 393.78 349.33 393.78 484.37 471.78 484.37 471.78 349.33 496.42 349.33 496.42 484.37 574.42 484.37 574.42 302.61 401 302.61"/>
      <polygon class="cls-3" points="401 95.47 368.39 125.16 368.39 95.47 290.38 95.47 290.38 277.23 368.39 277.23 368.39 142.19 393.78 142.19 393.78 277.23 471.78 277.23 471.78 142.19 496.42 142.19 496.42 277.23 574.42 277.23 574.42 95.47 401 95.47"/>
      <path class="cls-3" d="M853.62,302.61v181.75h264.04v-94.92l-112.47-86.83h-151.57ZM1040.4,408.48h-121.56v-59.15h44.95l76.62,59.15h-.01Z"/>
    </g>
  </g>
  <g>
    <g>
      <rect class="cls-2" x="854.19" y="26" width="78.01" height="251.56"/>
      <rect class="cls-2" x="953.76" y="26" width="78.01" height="251.56"/>
      <g>
        <rect class="cls-2" x="1139.8" y="371.88" width="78.01" height="112.82"/>
        <rect class="cls-2" x="1139.8" y="298.66" width="78.01" height="51.64"/>
      </g>
      <path class="cls-2" d="M1239.37,297.71v46.72h83.1l-83.1,64.39v75.89h236.07v-187h-236.07ZM1334.07,408.81l76.15-58.79v58.79h-76.15Z"/>
      <path class="cls-2" d="M596.56,302.95v181.75h236.07v-75.89h-76.62l76.62-59.15v-46.72h-236.07ZM735.83,349.66l-74.06,57.17v-57.17h74.06Z"/>
      <path class="cls-2" d="M596.56,95.8v181.75h236.07v-75.89h-76.62l76.62-59.15v-46.72h-236.07ZM735.83,142.52l-74.06,57.17v-57.17h74.06Z"/>
      <path class="cls-2" d="M1289.41,95.8h-236.07v181.75h236.07V95.8ZM1118.55,201.67v-59.15h105.64v59.15h-105.64Z"/>
      <polygon class="cls-2" points="401.57 302.95 368.96 332.63 368.96 302.95 290.95 302.95 290.95 484.7 368.96 484.7 368.96 349.66 394.35 349.66 394.35 484.7 472.35 484.7 472.35 349.66 496.99 349.66 496.99 484.7 574.99 484.7 574.99 302.95 401.57 302.95"/>
      <polygon class="cls-2" points="401.57 95.8 368.96 125.49 368.96 95.8 290.95 95.8 290.95 277.56 368.96 277.56 368.96 142.52 394.35 142.52 394.35 277.56 472.35 277.56 472.35 142.52 496.99 142.52 496.99 277.56 574.99 277.56 574.99 95.8 401.57 95.8"/>
      <path class="cls-2" d="M854.19,302.95v181.75h264.04v-94.92l-112.47-86.83h-151.57ZM1040.97,408.81h-121.56v-59.15h44.95l76.62,59.15h-.01Z"/>
    </g>
    <g>
      <rect class="cls-1" x="854.19" y="26" width="78.01" height="251.56"/>
      <rect class="cls-1" x="953.76" y="26" width="78.01" height="251.56"/>
      <g>
        <rect class="cls-1" x="1139.8" y="371.88" width="78.01" height="112.82"/>
        <rect class="cls-1" x="1139.8" y="298.66" width="78.01" height="51.64"/>
      </g>
      <path class="cls-1" d="M1239.37,297.71v46.72h83.1l-83.1,64.39v75.89h236.07v-187h-236.07ZM1334.07,408.81l76.15-58.79v58.79h-76.15Z"/>
      <path class="cls-1" d="M596.56,302.95v181.75h236.07v-75.89h-76.62l76.62-59.15v-46.72h-236.07ZM735.83,349.66l-74.06,57.17v-57.17h74.06Z"/>
      <path class="cls-1" d="M596.56,95.8v181.75h236.07v-75.89h-76.62l76.62-59.15v-46.72h-236.07ZM735.83,142.52l-74.06,57.17v-57.17h74.06Z"/>
      <path class="cls-1" d="M1289.41,95.8h-236.07v181.75h236.07V95.8ZM1118.55,201.67v-59.15h105.64v59.15h-105.64Z"/>
      <polygon class="cls-1" points="401.57 302.95 368.96 332.63 368.96 302.95 290.95 302.95 290.95 484.7 368.96 484.7 368.96 349.66 394.35 349.66 394.35 484.7 472.35 484.7 472.35 349.66 496.99 349.66 496.99 484.7 574.99 484.7 574.99 302.95 401.57 302.95"/>
      <polygon class="cls-1" points="401.57 95.8 368.96 125.49 368.96 95.8 290.95 95.8 290.95 277.56 368.96 277.56 368.96 142.52 394.35 142.52 394.35 277.56 472.35 277.56 472.35 142.52 496.99 142.52 496.99 277.56 574.99 277.56 574.99 95.8 401.57 95.8"/>
      <path class="cls-1" d="M854.19,302.95v181.75h264.04v-94.92l-112.47-86.83h-151.57ZM1040.97,408.81h-121.56v-59.15h44.95l76.62,59.15h-.01Z"/>
    </g>
  </g>
</svg>