<?xml version="1.0" encoding="UTF-8"?>
<svg id="Layer_1" xmlns="http://www.w3.org/2000/svg" version="1.1" viewBox="0 0 1533.9 687">
  <!-- Generator: Adobe Illustrator 29.0.0, SVG Export Plug-In . SVG Version: 2.1.0 Build 186)  -->
  <defs>
    <style>
      .st0 {
        fill: #de8589;
      }

      .st1 {
        fill: #fff;
      }

      .st2 {
        fill: none;
        stroke: #27aae1;
      }
    </style>
  </defs>
  <polygon points="1336.59 282.83 1336.59 80.93 1078.95 80.93 1078.95 11.12 850.7 11.13 735.03 80.93 287.45 80.93 22.62 240.76 22.62 682.13 1257.78 682.12 1522.62 522.29 1522.62 282.83 1336.59 282.83"/>
  <g>
    <g>
      <rect class="st1" x="876.24" y="36.78" width="78.01" height="251.56"/>
      <rect class="st1" x="975.81" y="36.78" width="78.01" height="251.56"/>
      <g>
        <rect class="st1" x="1161.85" y="382.67" width="78.01" height="112.82"/>
        <rect class="st1" x="1161.85" y="309.45" width="78.01" height="51.64"/>
      </g>
      <path class="st1" d="M1261.42,308.49v46.72h83.1s-83.1,64.39-83.1,64.39v75.89h236.07s0-187,0-187h-236.07ZM1356.12,419.6l76.15-58.79v58.79h-76.15Z"/>
      <path class="st1" d="M618.61,313.73v181.75h236.07v-75.89h-76.62s76.62-59.15,76.62-59.15v-46.72h-236.07ZM757.88,360.45l-74.06,57.17v-57.17h74.06Z"/>
      <path class="st1" d="M618.61,106.59v181.75h236.07v-75.89h-76.62l76.62-59.15v-46.72h-236.07ZM757.88,153.31l-74.06,57.17v-57.17h74.06Z"/>
      <path class="st1" d="M1311.46,106.59h-236.07v181.75h236.07V106.59ZM1140.6,212.46v-59.15h105.64v59.15h-105.64Z"/>
      <polygon class="st1" points="423.62 313.73 391.01 343.42 391.01 313.73 313 313.73 313 495.49 391.01 495.49 391.01 360.45 416.4 360.45 416.4 495.49 494.4 495.49 494.4 360.45 519.04 360.45 519.04 495.49 597.04 495.49 597.04 313.73 423.62 313.73"/>
      <polygon class="st1" points="423.62 106.59 391.01 136.28 391.01 106.59 313 106.59 313 288.35 391.01 288.35 391.01 153.31 416.4 153.31 416.4 288.35 494.4 288.35 494.4 153.31 519.04 153.31 519.04 288.35 597.04 288.35 597.04 106.59 423.62 106.59"/>
      <path class="st1" d="M876.24,313.73v181.75h264.04v-94.92l-112.47-86.83h-151.56ZM1063.02,419.6h-121.56v-59.15h44.95l76.62,59.15Z"/>
    </g>
    <g>
      <rect class="st2" x="876.24" y="36.78" width="78.01" height="251.56"/>
      <rect class="st2" x="975.81" y="36.78" width="78.01" height="251.56"/>
      <g>
        <rect class="st2" x="1161.85" y="382.67" width="78.01" height="112.82"/>
        <rect class="st2" x="1161.85" y="309.45" width="78.01" height="51.64"/>
      </g>
      <path class="st2" d="M1261.42,308.49v46.72h83.1s-83.1,64.39-83.1,64.39v75.89h236.07s0-187,0-187h-236.07ZM1356.12,419.6l76.15-58.79v58.79h-76.15Z"/>
      <path class="st2" d="M618.61,313.73v181.75h236.07v-75.89h-76.62s76.62-59.15,76.62-59.15v-46.72h-236.07ZM757.88,360.45l-74.06,57.17v-57.17h74.06Z"/>
      <path class="st2" d="M618.61,106.59v181.75h236.07v-75.89h-76.62l76.62-59.15v-46.72h-236.07ZM757.88,153.31l-74.06,57.17v-57.17h74.06Z"/>
      <path class="st2" d="M1311.46,106.59h-236.07v181.75h236.07V106.59ZM1140.6,212.46v-59.15h105.64v59.15h-105.64Z"/>
      <polygon class="st2" points="423.62 313.73 391.01 343.42 391.01 313.73 313 313.73 313 495.49 391.01 495.49 391.01 360.45 416.4 360.45 416.4 495.49 494.4 495.49 494.4 360.45 519.04 360.45 519.04 495.49 597.04 495.49 597.04 313.73 423.62 313.73"/>
      <polygon class="st2" points="423.62 106.59 391.01 136.28 391.01 106.59 313 106.59 313 288.35 391.01 288.35 391.01 153.31 416.4 153.31 416.4 288.35 494.4 288.35 494.4 153.31 519.04 153.31 519.04 288.35 597.04 288.35 597.04 106.59 423.62 106.59"/>
      <path class="st2" d="M876.24,313.73v181.75h264.04v-94.92l-112.47-86.83h-151.56ZM1063.02,419.6h-121.56v-59.15h44.95l76.62,59.15Z"/>
    </g>
  </g>
  <g>
    <g>
      <rect class="st1" x="877.81" y="36.12" width="78.01" height="251.56"/>
      <rect class="st1" x="977.38" y="36.12" width="78.01" height="251.56"/>
      <g>
        <rect class="st1" x="1163.42" y="382" width="78.01" height="112.82"/>
        <rect class="st1" x="1163.42" y="308.78" width="78.01" height="51.64"/>
      </g>
      <path class="st1" d="M1262.99,307.83v46.72h83.1s-83.1,64.39-83.1,64.39v75.89h236.07s0-187,0-187h-236.07ZM1357.69,418.93l76.15-58.79v58.79h-76.15Z"/>
      <path class="st1" d="M620.18,313.07v181.75h236.07v-75.89h-76.62s76.62-59.15,76.62-59.15v-46.72h-236.07ZM759.45,359.78l-74.06,57.17v-57.17h74.06Z"/>
      <path class="st1" d="M620.18,105.92v181.75h236.07v-75.89h-76.62l76.62-59.15v-46.72h-236.07ZM759.45,152.64l-74.06,57.17v-57.17h74.06Z"/>
      <path class="st1" d="M1313.03,105.92h-236.07v181.75h236.07V105.92ZM1142.17,211.79v-59.15h105.64v59.15h-105.64Z"/>
      <polygon class="st1" points="425.19 313.07 392.58 342.75 392.58 313.07 314.57 313.07 314.57 494.82 392.58 494.82 392.58 359.78 417.97 359.78 417.97 494.82 495.97 494.82 495.97 359.78 520.61 359.78 520.61 494.82 598.61 494.82 598.61 313.07 425.19 313.07"/>
      <polygon class="st1" points="425.19 105.92 392.58 135.61 392.58 105.92 314.57 105.92 314.57 287.68 392.58 287.68 392.58 152.64 417.97 152.64 417.97 287.68 495.97 287.68 495.97 152.64 520.61 152.64 520.61 287.68 598.61 287.68 598.61 105.92 425.19 105.92"/>
      <path class="st1" d="M877.81,313.07v181.75h264.04v-94.92l-112.47-86.83h-151.56ZM1064.59,418.93h-121.56v-59.15h44.95l76.62,59.15Z"/>
    </g>
    <g>
      <rect class="st0" x="877.81" y="36.12" width="78.01" height="251.56"/>
      <rect class="st0" x="977.38" y="36.12" width="78.01" height="251.56"/>
      <g>
        <rect class="st0" x="1163.42" y="382" width="78.01" height="112.82"/>
        <rect class="st0" x="1163.42" y="308.78" width="78.01" height="51.64"/>
      </g>
      <path class="st0" d="M1262.99,307.83v46.72h83.1s-83.1,64.39-83.1,64.39v75.89h236.07s0-187,0-187h-236.07ZM1357.69,418.93l76.15-58.79v58.79h-76.15Z"/>
      <path class="st0" d="M620.18,313.07v181.75h236.07v-75.89h-76.62s76.62-59.15,76.62-59.15v-46.72h-236.07ZM759.45,359.78l-74.06,57.17v-57.17h74.06Z"/>
      <path class="st0" d="M620.18,105.92v181.75h236.07v-75.89h-76.62l76.62-59.15v-46.72h-236.07ZM759.45,152.64l-74.06,57.17v-57.17h74.06Z"/>
      <path class="st0" d="M1313.03,105.92h-236.07v181.75h236.07V105.92ZM1142.17,211.79v-59.15h105.64v59.15h-105.64Z"/>
      <polygon class="st0" points="425.19 313.07 392.58 342.75 392.58 313.07 314.57 313.07 314.57 494.82 392.58 494.82 392.58 359.78 417.97 359.78 417.97 494.82 495.97 494.82 495.97 359.78 520.61 359.78 520.61 494.82 598.61 494.82 598.61 313.07 425.19 313.07"/>
      <polygon class="st0" points="425.19 105.92 392.58 135.61 392.58 105.92 314.57 105.92 314.57 287.68 392.58 287.68 392.58 152.64 417.97 152.64 417.97 287.68 495.97 287.68 495.97 152.64 520.61 152.64 520.61 287.68 598.61 287.68 598.61 105.92 425.19 105.92"/>
      <path class="st0" d="M877.81,313.07v181.75h264.04v-94.92l-112.47-86.83h-151.56ZM1064.59,418.93h-121.56v-59.15h44.95l76.62,59.15Z"/>
    </g>
  </g>
</svg>