<?xml version="1.0" encoding="UTF-8"?>
<svg id="Layer_1" xmlns="http://www.w3.org/2000/svg" viewBox="0 0 1500 671">
  <defs>
    <style>
      .cls-1 {
        fill: #ff7d90;
      }

      .cls-2 {
        fill: #fff;
      }

      .cls-3 {
        fill: #94a599;
      }
    </style>
  </defs>
  <polygon points="1313.97 271.71 1313.97 69.81 1056.33 69.81 1056.33 0 828.08 0 712.41 69.81 264.83 69.81 0 229.64 0 671 1235.17 671 1500 511.17 1500 271.71 1313.97 271.71"/>
  <g>
    <g>
      <g>
        <rect class="cls-2" x="855.2" y="24.99" width="78.01" height="251.56"/>
        <rect class="cls-2" x="954.77" y="24.99" width="78.01" height="251.56"/>
        <g>
          <rect class="cls-2" x="1140.8" y="370.88" width="78.01" height="112.82"/>
          <rect class="cls-2" x="1140.8" y="297.66" width="78.01" height="51.64"/>
        </g>
        <path class="cls-2" d="M1240.37,296.7v46.72h83.1l-83.1,64.39v75.89h236.07v-187h-236.07,0ZM1335.07,407.81l76.15-58.79v58.79h-76.15Z"/>
        <path class="cls-2" d="M597.56,301.94v181.75h236.07v-75.89h-76.62l76.62-59.15v-46.72h-236.07ZM736.84,348.66l-74.06,57.17v-57.17h74.06Z"/>
        <path class="cls-2" d="M597.56,94.8v181.75h236.07v-75.89h-76.62l76.62-59.15v-46.72h-236.07ZM736.84,141.52l-74.06,57.17v-57.17h74.06Z"/>
        <path class="cls-2" d="M1290.41,94.8h-236.07v181.75h236.07V94.8h0ZM1119.55,200.67v-59.15h105.64v59.15h-105.64Z"/>
        <polygon class="cls-2" points="402.57 301.94 369.96 331.63 369.96 301.94 291.95 301.94 291.95 483.7 369.96 483.7 369.96 348.66 395.35 348.66 395.35 483.7 473.36 483.7 473.36 348.66 497.99 348.66 497.99 483.7 575.99 483.7 575.99 301.94 402.57 301.94"/>
        <polygon class="cls-2" points="402.57 94.8 369.96 124.49 369.96 94.8 291.95 94.8 291.95 276.56 369.96 276.56 369.96 141.52 395.35 141.52 395.35 276.56 473.36 276.56 473.36 141.52 497.99 141.52 497.99 276.56 575.99 276.56 575.99 94.8 402.57 94.8"/>
        <path class="cls-2" d="M855.2,301.94v181.75h264.04v-94.92l-112.47-86.83h-151.57ZM1041.98,407.81h-121.56v-59.15h44.95l76.62,59.15h-.01Z"/>
      </g>
      <g>
        <rect class="cls-3" x="855.2" y="24.99" width="78.01" height="251.56"/>
        <rect class="cls-3" x="954.77" y="24.99" width="78.01" height="251.56"/>
        <g>
          <rect class="cls-3" x="1140.8" y="370.88" width="78.01" height="112.82"/>
          <rect class="cls-3" x="1140.8" y="297.66" width="78.01" height="51.64"/>
        </g>
        <path class="cls-3" d="M1240.37,296.7v46.72h83.1l-83.1,64.39v75.89h236.07v-187h-236.07,0ZM1335.07,407.81l76.15-58.79v58.79h-76.15Z"/>
        <path class="cls-3" d="M597.56,301.94v181.75h236.07v-75.89h-76.62l76.62-59.15v-46.72h-236.07ZM736.84,348.66l-74.06,57.17v-57.17h74.06Z"/>
        <path class="cls-3" d="M597.56,94.8v181.75h236.07v-75.89h-76.62l76.62-59.15v-46.72h-236.07ZM736.84,141.52l-74.06,57.17v-57.17h74.06Z"/>
        <path class="cls-3" d="M1290.41,94.8h-236.07v181.75h236.07V94.8h0ZM1119.55,200.67v-59.15h105.64v59.15h-105.64Z"/>
        <polygon class="cls-3" points="402.57 301.94 369.96 331.63 369.96 301.94 291.95 301.94 291.95 483.7 369.96 483.7 369.96 348.66 395.35 348.66 395.35 483.7 473.36 483.7 473.36 348.66 497.99 348.66 497.99 483.7 575.99 483.7 575.99 301.94 402.57 301.94"/>
        <polygon class="cls-3" points="402.57 94.8 369.96 124.49 369.96 94.8 291.95 94.8 291.95 276.56 369.96 276.56 369.96 141.52 395.35 141.52 395.35 276.56 473.36 276.56 473.36 141.52 497.99 141.52 497.99 276.56 575.99 276.56 575.99 94.8 402.57 94.8"/>
        <path class="cls-3" d="M855.2,301.94v181.75h264.04v-94.92l-112.47-86.83h-151.57ZM1041.98,407.81h-121.56v-59.15h44.95l76.62,59.15h-.01Z"/>
      </g>
    </g>
    <g>
      <g>
        <rect class="cls-1" x="855.2" y="24.99" width="78.01" height="251.56"/>
        <rect class="cls-1" x="954.77" y="24.99" width="78.01" height="251.56"/>
        <g>
          <rect class="cls-1" x="1140.8" y="370.88" width="78.01" height="112.82"/>
          <rect class="cls-1" x="1140.8" y="297.66" width="78.01" height="51.64"/>
        </g>
        <path class="cls-1" d="M1240.37,296.7v46.72h83.1l-83.1,64.39v75.89h236.07v-187h-236.07,0ZM1335.07,407.81l76.15-58.79v58.79h-76.15Z"/>
        <path class="cls-1" d="M597.56,301.94v181.75h236.07v-75.89h-76.62l76.62-59.15v-46.72h-236.07ZM736.84,348.66l-74.06,57.17v-57.17h74.06Z"/>
        <path class="cls-1" d="M597.56,94.8v181.75h236.07v-75.89h-76.62l76.62-59.15v-46.72h-236.07ZM736.84,141.52l-74.06,57.17v-57.17h74.06Z"/>
        <path class="cls-1" d="M1290.41,94.8h-236.07v181.75h236.07V94.8h0ZM1119.55,200.67v-59.15h105.64v59.15h-105.64Z"/>
        <polygon class="cls-1" points="402.57 301.94 369.96 331.63 369.96 301.94 291.95 301.94 291.95 483.7 369.96 483.7 369.96 348.66 395.35 348.66 395.35 483.7 473.36 483.7 473.36 348.66 497.99 348.66 497.99 483.7 575.99 483.7 575.99 301.94 402.57 301.94"/>
        <polygon class="cls-1" points="402.57 94.8 369.96 124.49 369.96 94.8 291.95 94.8 291.95 276.56 369.96 276.56 369.96 141.52 395.35 141.52 395.35 276.56 473.36 276.56 473.36 141.52 497.99 141.52 497.99 276.56 575.99 276.56 575.99 94.8 402.57 94.8"/>
        <path class="cls-1" d="M855.2,301.94v181.75h264.04v-94.92l-112.47-86.83h-151.57ZM1041.98,407.81h-121.56v-59.15h44.95l76.62,59.15h-.01Z"/>
      </g>
      <g>
        <rect class="cls-1" x="855.2" y="24.99" width="78.01" height="251.56"/>
        <rect class="cls-1" x="954.77" y="24.99" width="78.01" height="251.56"/>
        <g>
          <rect class="cls-1" x="1140.8" y="370.88" width="78.01" height="112.82"/>
          <rect class="cls-1" x="1140.8" y="297.66" width="78.01" height="51.64"/>
        </g>
        <path class="cls-1" d="M1240.37,296.7v46.72h83.1l-83.1,64.39v75.89h236.07v-187h-236.07,0ZM1335.07,407.81l76.15-58.79v58.79h-76.15Z"/>
        <path class="cls-1" d="M597.56,301.94v181.75h236.07v-75.89h-76.62l76.62-59.15v-46.72h-236.07ZM736.84,348.66l-74.06,57.17v-57.17h74.06Z"/>
        <path class="cls-1" d="M597.56,94.8v181.75h236.07v-75.89h-76.62l76.62-59.15v-46.72h-236.07ZM736.84,141.52l-74.06,57.17v-57.17h74.06Z"/>
        <path class="cls-1" d="M1290.41,94.8h-236.07v181.75h236.07V94.8h0ZM1119.55,200.67v-59.15h105.64v59.15h-105.64Z"/>
        <polygon class="cls-1" points="402.57 301.94 369.96 331.63 369.96 301.94 291.95 301.94 291.95 483.7 369.96 483.7 369.96 348.66 395.35 348.66 395.35 483.7 473.36 483.7 473.36 348.66 497.99 348.66 497.99 483.7 575.99 483.7 575.99 301.94 402.57 301.94"/>
        <polygon class="cls-1" points="402.57 94.8 369.96 124.49 369.96 94.8 291.95 94.8 291.95 276.56 369.96 276.56 369.96 141.52 395.35 141.52 395.35 276.56 473.36 276.56 473.36 141.52 497.99 141.52 497.99 276.56 575.99 276.56 575.99 94.8 402.57 94.8"/>
        <path class="cls-1" d="M855.2,301.94v181.75h264.04v-94.92l-112.47-86.83h-151.57ZM1041.98,407.81h-121.56v-59.15h44.95l76.62,59.15h-.01Z"/>
      </g>
    </g>
  </g>
</svg>