<?xml version="1.0" encoding="UTF-8"?>
<svg id="Layer_1" data-name="Layer 1" xmlns="http://www.w3.org/2000/svg" viewBox="0 0 1500 671.01">
  <defs>
    <style>
      .cls-1 {
        fill: #de8589;
      }

      .cls-2 {
        fill: #fff;
      }
    </style>
  </defs>
  <polygon points="1313.97 271.71 1313.97 69.81 1056.33 69.81 1056.33 0 828.08 .01 712.41 69.81 264.83 69.81 0 229.64 0 671.01 1235.16 671 1500 511.17 1500 271.71 1313.97 271.71"/>
  <g>
    <g>
      <rect class="cls-2" x="854.19" y="25" width="78.01" height="251.56"/>
      <rect class="cls-2" x="953.76" y="25" width="78.01" height="251.56"/>
      <g>
        <rect class="cls-2" x="1139.8" y="370.88" width="78.01" height="112.82"/>
        <rect class="cls-2" x="1139.8" y="297.66" width="78.01" height="51.64"/>
      </g>
      <path class="cls-2" d="M1239.37,296.71v46.72h83.1l-83.1,64.39v75.89h236.07v-187h-236.07ZM1334.07,407.81l76.15-58.79v58.79h-76.15Z"/>
      <path class="cls-2" d="M596.56,301.95v181.75h236.07v-75.89h-76.62l76.62-59.15v-46.72h-236.07ZM735.83,348.66l-74.06,57.17v-57.17h74.06Z"/>
      <path class="cls-2" d="M596.56,94.8v181.75h236.07v-75.89h-76.62l76.62-59.15v-46.72h-236.07ZM735.83,141.52l-74.06,57.17v-57.17h74.06Z"/>
      <path class="cls-2" d="M1289.41,94.8h-236.07v181.75h236.07V94.8ZM1118.55,200.67v-59.15h105.64v59.15h-105.64Z"/>
      <polygon class="cls-2" points="401.57 301.95 368.96 331.63 368.96 301.95 290.95 301.95 290.95 483.7 368.96 483.7 368.96 348.66 394.35 348.66 394.35 483.7 472.35 483.7 472.35 348.66 496.99 348.66 496.99 483.7 574.99 483.7 574.99 301.95 401.57 301.95"/>
      <polygon class="cls-2" points="401.57 94.8 368.96 124.49 368.96 94.8 290.95 94.8 290.95 276.56 368.96 276.56 368.96 141.52 394.35 141.52 394.35 276.56 472.35 276.56 472.35 141.52 496.99 141.52 496.99 276.56 574.99 276.56 574.99 94.8 401.57 94.8"/>
      <path class="cls-2" d="M854.19,301.95v181.75h264.04v-94.92l-112.47-86.83h-151.57ZM1040.97,407.81h-121.56v-59.15h44.95l76.62,59.15h-.01Z"/>
    </g>
    <g>
      <rect class="cls-1" x="854.19" y="25" width="78.01" height="251.56"/>
      <rect class="cls-1" x="953.76" y="25" width="78.01" height="251.56"/>
      <g>
        <rect class="cls-1" x="1139.8" y="370.88" width="78.01" height="112.82"/>
        <rect class="cls-1" x="1139.8" y="297.66" width="78.01" height="51.64"/>
      </g>
      <path class="cls-1" d="M1239.37,296.71v46.72h83.1l-83.1,64.39v75.89h236.07v-187h-236.07ZM1334.07,407.81l76.15-58.79v58.79h-76.15Z"/>
      <path class="cls-1" d="M596.56,301.95v181.75h236.07v-75.89h-76.62l76.62-59.15v-46.72h-236.07ZM735.83,348.66l-74.06,57.17v-57.17h74.06Z"/>
      <path class="cls-1" d="M596.56,94.8v181.75h236.07v-75.89h-76.62l76.62-59.15v-46.72h-236.07ZM735.83,141.52l-74.06,57.17v-57.17h74.06Z"/>
      <path class="cls-1" d="M1289.41,94.8h-236.07v181.75h236.07V94.8ZM1118.55,200.67v-59.15h105.64v59.15h-105.64Z"/>
      <polygon class="cls-1" points="401.57 301.95 368.96 331.63 368.96 301.95 290.95 301.95 290.95 483.7 368.96 483.7 368.96 348.66 394.35 348.66 394.35 483.7 472.35 483.7 472.35 348.66 496.99 348.66 496.99 483.7 574.99 483.7 574.99 301.95 401.57 301.95"/>
      <polygon class="cls-1" points="401.57 94.8 368.96 124.49 368.96 94.8 290.95 94.8 290.95 276.56 368.96 276.56 368.96 141.52 394.35 141.52 394.35 276.56 472.35 276.56 472.35 141.52 496.99 141.52 496.99 276.56 574.99 276.56 574.99 94.8 401.57 94.8"/>
      <path class="cls-1" d="M854.19,301.95v181.75h264.04v-94.92l-112.47-86.83h-151.57ZM1040.97,407.81h-121.56v-59.15h44.95l76.62,59.15h-.01Z"/>
    </g>
  </g>
</svg>